
<svg display="none">
    <defs>
        <g id="img-lock-padlock">
            <path xmlns="http://www.w3.org/2000/svg" fill="none" d="M363.908,212.282v-90.978C363.908,54.434,309.509,0,242.606,0c-66.884,0-121.302,54.434-121.302,121.304v90.978 c-33.498,0-60.653,27.158-60.653,60.648v151.629c0,33.5,27.155,60.653,60.653,60.653h242.604c33.491,0,60.653-27.153,60.653-60.653 V272.93C424.562,239.439,397.399,212.282,363.908,212.282z M257.77,359.257v50.139c0,8.382-6.781,15.163-15.163,15.163 c-8.382,0-15.164-6.781-15.164-15.163v-50.139c-8.9-5.269-15.161-14.57-15.161-25.673c0-16.765,13.579-30.327,30.324-30.327 c16.745,0,30.326,13.562,30.326,30.327C272.933,344.687,266.665,353.989,257.77,359.257z M303.255,212.282h-121.3v-90.978 c0-33.465,27.2-60.653,60.651-60.653c33.435,0,60.648,27.188,60.648,60.653V212.282z"/>
        </g>
        <g id="img-shoppingbasket">
            <path xmlns="http://www.w3.org/2000/svg" fill="none" d="M114.452,54.13c0-3.975-3.253-7.228-7.228-7.228H8.99c-3.975,0-7.227,3.253-7.227,7.228c0,3.379,2.358,6.214,5.504,6.995 l9.966,47.148c0,4.368,3.573,7.941,7.941,7.941H92.34c4.368,0,7.941-3.573,7.941-7.941l10.075-47.663 C112.767,59.436,114.452,56.98,114.452,54.13z M34.228,99.059c0,1.365-1.117,2.481-2.482,2.481h-0.684 c-1.365,0-2.482-1.117-2.482-2.481V70.014c0-1.365,1.117-2.481,2.482-2.481h0.684c1.365,0,2.482,1.116,2.482,2.481V99.059z M52.397,99.059c0,1.365-1.117,2.481-2.482,2.481h-0.684c-1.365,0-2.482-1.117-2.482-2.481V70.014c0-1.365,1.116-2.481,2.482-2.481 h0.684c1.365,0,2.482,1.116,2.482,2.481V99.059z M70.565,99.059c0,1.365-1.116,2.481-2.482,2.481H67.4 c-1.365,0-2.481-1.117-2.481-2.481V70.014c0-1.365,1.116-2.481,2.481-2.481h0.684c1.365,0,2.482,1.116,2.482,2.481V99.059z M88.734,99.059c0,1.365-1.117,2.481-2.481,2.481h-0.684c-1.365,0-2.482-1.117-2.482-2.481V70.014c0-1.365,1.117-2.481,2.482-2.481 h0.684c1.365,0,2.481,1.116,2.481,2.481V99.059z"/><path xmlns="http://www.w3.org/2000/svg" d="M26.283,34.868C28.533,19.2,41.973,7.145,58.264,7.145c16.291,0,29.732,12.055,31.982,27.723c0.328,5.35,7.22,4.494,7.22,0 C95.171,15.24,78.509,0,58.264,0C38.02,0,21.357,15.24,19.063,34.868C19.063,40.433,26.371,40.647,26.283,34.868z"/>
        </g>
        <g id="img-laptop">
            <path xmlns="http://www.w3.org/2000/svg" fill="none" d="M118.774,383.722h310.632c12.562,0,23.312-4.47,32.257-13.422c8.949-8.949,13.422-19.698,13.422-32.258V137.046 c0-12.563-4.473-23.313-13.422-32.261c-8.945-8.947-19.694-13.418-32.257-13.418H118.774c-12.562,0-23.318,4.471-32.264,13.418 c-8.947,8.947-13.418,19.698-13.418,32.261v200.997c0,12.56,4.471,23.312,13.418,32.258 C95.456,379.246,106.212,383.722,118.774,383.722z M109.634,137.046c0-2.474,0.905-4.619,2.713-6.423 c1.811-1.806,3.953-2.712,6.427-2.712h310.625c2.478,0,4.619,0.904,6.427,2.712c1.803,1.809,2.707,3.949,2.707,6.423v200.997 c0,2.471-0.904,4.617-2.707,6.42c-1.808,1.808-3.949,2.714-6.427,2.714H118.771c-2.475,0-4.617-0.903-6.427-2.714 c-1.805-1.81-2.71-3.949-2.71-6.42V137.046z"/><path xmlns="http://www.w3.org/2000/svg" d="M502.496,401.997H45.681H0v27.404c0,7.618,4.471,14.086,13.417,19.414c8.951,5.328,19.702,7.994,32.264,7.994h456.815 c12.56,0,23.312-2.666,32.258-7.994s13.422-11.796,13.422-19.414v-27.404H502.496z M296.928,429.401h-45.681 c-3.042,0-4.565-1.526-4.565-4.568c0-3.046,1.523-4.575,4.565-4.575h45.681c3.045,0,4.571,1.529,4.571,4.575 C301.499,427.875,299.973,429.401,296.928,429.401z"/>
        </g>
        <g id="img-laptop">
            <path xmlns="http://www.w3.org/2000/svg" fill="none" d="M118.774,383.722h310.632c12.562,0,23.312-4.47,32.257-13.422c8.949-8.949,13.422-19.698,13.422-32.258V137.046 c0-12.563-4.473-23.313-13.422-32.261c-8.945-8.947-19.694-13.418-32.257-13.418H118.774c-12.562,0-23.318,4.471-32.264,13.418 c-8.947,8.947-13.418,19.698-13.418,32.261v200.997c0,12.56,4.471,23.312,13.418,32.258 C95.456,379.246,106.212,383.722,118.774,383.722z M109.634,137.046c0-2.474,0.905-4.619,2.713-6.423 c1.811-1.806,3.953-2.712,6.427-2.712h310.625c2.478,0,4.619,0.904,6.427,2.712c1.803,1.809,2.707,3.949,2.707,6.423v200.997 c0,2.471-0.904,4.617-2.707,6.42c-1.808,1.808-3.949,2.714-6.427,2.714H118.771c-2.475,0-4.617-0.903-6.427-2.714 c-1.805-1.81-2.71-3.949-2.71-6.42V137.046z"/><path xmlns="http://www.w3.org/2000/svg" d="M502.496,401.997H45.681H0v27.404c0,7.618,4.471,14.086,13.417,19.414c8.951,5.328,19.702,7.994,32.264,7.994h456.815 c12.56,0,23.312-2.666,32.258-7.994s13.422-11.796,13.422-19.414v-27.404H502.496z M296.928,429.401h-45.681 c-3.042,0-4.565-1.526-4.565-4.568c0-3.046,1.523-4.575,4.565-4.575h45.681c3.045,0,4.571,1.529,4.571,4.575 C301.499,427.875,299.973,429.401,296.928,429.401z"/>
        </g>
    </defs>
</svg>
